<?xml version="1.0" encoding="utf-8" standalone="no"?>
<!DOCTYPE svg PUBLIC "-//W3C//DTD SVG 1.1//EN"
  "http://www.w3.org/Graphics/SVG/1.1/DTD/svg11.dtd">
<!-- Created with matplotlib (http://matplotlib.org/) -->
<svg height="644pt" version="1.1" viewBox="0 0 1185 644" width="1185pt" xmlns="http://www.w3.org/2000/svg" xmlns:xlink="http://www.w3.org/1999/xlink">
 <defs>
  <style type="text/css">
*{stroke-linecap:butt;stroke-linejoin:round;stroke-miterlimit:100000;}
  </style>
 </defs>
 <g id="figure_1">
  <g id="patch_1">
   <path d="M 0 644.4 
L 1185.3 644.4 
L 1185.3 0 
L 0 0 
z
" style="fill:#ffffff;"/>
  </g>
  <g id="axes_1">
   <g id="patch_2">
    <path d="M 148.1625 579.96 
L 1066.77 579.96 
L 1066.77 64.44 
L 148.1625 64.44 
z
" style="fill:#ffffff;"/>
   </g>
   <g id="line2d_1">
    <path clip-path="url(#p0aae962aee)" d="M 147.243892 236.28 
L 154.592752 236.28 
L 155.51136 579.96 
L 169.290472 579.96 
L 170.20908 236.28 
L 197.767305 236.28 
L 198.685913 579.96 
L 212.465025 579.96 
L 214.30224 236.28 
L 240.941858 236.28 
L 241.860465 579.96 
L 277.686158 579.96 
L 278.604765 236.28 
L 298.81413 236.28 
L 300.651345 579.96 
L 319.942103 579.96 
L 320.86071 236.28 
L 341.070075 236.28 
L 341.988683 579.96 
L 355.767795 579.96 
L 356.686403 236.28 
L 384.244628 236.28 
L 385.163235 579.96 
L 399.860955 579.96 
L 400.779563 236.28 
L 434.76804 236.28 
L 435.686648 579.96 
L 449.46576 579.96 
L 450.384368 236.28 
L 477.942593 236.28 
L 479.779808 579.96 
L 491.721705 579.96 
L 492.640313 236.28 
L 521.117145 236.28 
L 522.95436 579.96 
L 535.814865 579.96 
L 536.733473 236.28 
L 570.72195 236.28 
L 571.640558 579.96 
L 586.338278 579.96 
L 587.256885 236.28 
L 614.81511 236.28 
L 615.733718 579.96 
L 629.51283 579.96 
L 630.431438 236.28 
L 643.291943 236.28 
L 645.129158 579.96 
L 670.850168 579.96 
L 672.687383 236.28 
L 714.943328 236.28 
L 715.861935 579.96 
L 730.559655 579.96 
L 732.39687 236.28 
L 744.338767 236.28 
L 745.257375 579.96 
L 771.896993 579.96 
L 772.8156 236.28 
L 801.292433 236.28 
L 803.129647 579.96 
L 815.071545 579.96 
L 815.990153 236.28 
L 831.60648 236.28 
L 832.525087 579.96 
L 858.246098 579.96 
L 859.164705 236.28 
L 894.07179 236.28 
L 894.990398 579.96 
L 908.76951 579.96 
L 909.688118 236.28 
L 944.595203 236.28 
L 946.432418 579.96 
L 959.292922 579.96 
L 960.21153 236.28 
L 973.990642 236.28 
L 973.990642 579.96 
L 1001.548868 579.96 
L 1002.467475 236.28 
L 1016.246588 236.28 
L 1017.165195 579.96 
L 1033.70013 579.96 
L 1034.618737 236.28 
L 1067.688607 236.28 
L 1067.688607 236.28 
" style="fill:none;stroke:#0000ff;stroke-linecap:square;"/>
   </g>
   <g id="line2d_2">
    <defs>
     <path d="M -3 3 
L 3 -3 
M -3 -3 
L 3 3 
" id="m8436073b42" style="stroke:#ff0000;stroke-width:0.5;"/>
    </defs>
    <g clip-path="url(#p0aae962aee)">
     <use style="fill:#ff0000;stroke:#ff0000;stroke-width:0.5;" x="-200.90835" xlink:href="#m8436073b42" y="236.28"/>
     <use style="fill:#ff0000;stroke:#ff0000;stroke-width:0.5;" x="-1.0" xlink:href="#m8436073b42" y="236.28"/>
     <use style="fill:#ff0000;stroke:#ff0000;stroke-width:0.5;" x="5.7783375" xlink:href="#m8436073b42" y="236.28"/>
     <use style="fill:#ff0000;stroke:#ff0000;stroke-width:0.5;" x="28.743525" xlink:href="#m8436073b42" y="236.28"/>
     <use style="fill:#ff0000;stroke:#ff0000;stroke-width:0.5;" x="51.7087125" xlink:href="#m8436073b42" y="236.28"/>
     <use style="fill:#ff0000;stroke:#ff0000;stroke-width:0.5;" x="74.6739" xlink:href="#m8436073b42" y="236.28"/>
     <use style="fill:#ff0000;stroke:#ff0000;stroke-width:0.5;" x="97.6390875" xlink:href="#m8436073b42" y="236.28"/>
     <use style="fill:#ff0000;stroke:#ff0000;stroke-width:0.5;" x="120.604275" xlink:href="#m8436073b42" y="236.28"/>
     <use style="fill:#ff0000;stroke:#ff0000;stroke-width:0.5;" x="143.5694625" xlink:href="#m8436073b42" y="236.28"/>
     <use style="fill:#ff0000;stroke:#ff0000;stroke-width:0.5;" x="166.53465" xlink:href="#m8436073b42" y="236.28"/>
     <use style="fill:#ff0000;stroke:#ff0000;stroke-width:0.5;" x="189.4998375" xlink:href="#m8436073b42" y="236.28"/>
     <use style="fill:#ff0000;stroke:#ff0000;stroke-width:0.5;" x="212.465025" xlink:href="#m8436073b42" y="236.28"/>
     <use style="fill:#ff0000;stroke:#ff0000;stroke-width:0.5;" x="235.4302125" xlink:href="#m8436073b42" y="236.28"/>
     <use style="fill:#ff0000;stroke:#ff0000;stroke-width:0.5;" x="258.3954" xlink:href="#m8436073b42" y="236.28"/>
     <use style="fill:#ff0000;stroke:#ff0000;stroke-width:0.5;" x="281.3605875" xlink:href="#m8436073b42" y="236.28"/>
     <use style="fill:#ff0000;stroke:#ff0000;stroke-width:0.5;" x="304.325775" xlink:href="#m8436073b42" y="236.28"/>
     <use style="fill:#ff0000;stroke:#ff0000;stroke-width:0.5;" x="327.2909625" xlink:href="#m8436073b42" y="236.28"/>
     <use style="fill:#ff0000;stroke:#ff0000;stroke-width:0.5;" x="350.25615" xlink:href="#m8436073b42" y="236.28"/>
     <use style="fill:#ff0000;stroke:#ff0000;stroke-width:0.5;" x="373.2213375" xlink:href="#m8436073b42" y="236.28"/>
     <use style="fill:#ff0000;stroke:#ff0000;stroke-width:0.5;" x="396.186525" xlink:href="#m8436073b42" y="236.28"/>
     <use style="fill:#ff0000;stroke:#ff0000;stroke-width:0.5;" x="419.1517125" xlink:href="#m8436073b42" y="236.28"/>
     <use style="fill:#ff0000;stroke:#ff0000;stroke-width:0.5;" x="442.1169" xlink:href="#m8436073b42" y="236.28"/>
     <use style="fill:#ff0000;stroke:#ff0000;stroke-width:0.5;" x="465.0820875" xlink:href="#m8436073b42" y="236.28"/>
     <use style="fill:#ff0000;stroke:#ff0000;stroke-width:0.5;" x="488.047275" xlink:href="#m8436073b42" y="236.28"/>
     <use style="fill:#ff0000;stroke:#ff0000;stroke-width:0.5;" x="511.0124625" xlink:href="#m8436073b42" y="236.28"/>
     <use style="fill:#ff0000;stroke:#ff0000;stroke-width:0.5;" x="533.97765" xlink:href="#m8436073b42" y="236.28"/>
     <use style="fill:#ff0000;stroke:#ff0000;stroke-width:0.5;" x="556.9428375" xlink:href="#m8436073b42" y="236.28"/>
     <use style="fill:#ff0000;stroke:#ff0000;stroke-width:0.5;" x="579.908025" xlink:href="#m8436073b42" y="236.28"/>
     <use style="fill:#ff0000;stroke:#ff0000;stroke-width:0.5;" x="602.8732125" xlink:href="#m8436073b42" y="236.28"/>
     <use style="fill:#ff0000;stroke:#ff0000;stroke-width:0.5;" x="625.8384" xlink:href="#m8436073b42" y="236.28"/>
     <use style="fill:#ff0000;stroke:#ff0000;stroke-width:0.5;" x="648.8035875" xlink:href="#m8436073b42" y="236.28"/>
     <use style="fill:#ff0000;stroke:#ff0000;stroke-width:0.5;" x="671.768775" xlink:href="#m8436073b42" y="236.28"/>
     <use style="fill:#ff0000;stroke:#ff0000;stroke-width:0.5;" x="694.7339625" xlink:href="#m8436073b42" y="236.28"/>
     <use style="fill:#ff0000;stroke:#ff0000;stroke-width:0.5;" x="717.69915" xlink:href="#m8436073b42" y="236.28"/>
     <use style="fill:#ff0000;stroke:#ff0000;stroke-width:0.5;" x="740.6643375" xlink:href="#m8436073b42" y="236.28"/>
     <use style="fill:#ff0000;stroke:#ff0000;stroke-width:0.5;" x="763.629525" xlink:href="#m8436073b42" y="236.28"/>
     <use style="fill:#ff0000;stroke:#ff0000;stroke-width:0.5;" x="786.5947125" xlink:href="#m8436073b42" y="236.28"/>
     <use style="fill:#ff0000;stroke:#ff0000;stroke-width:0.5;" x="809.5599" xlink:href="#m8436073b42" y="236.28"/>
     <use style="fill:#ff0000;stroke:#ff0000;stroke-width:0.5;" x="832.5250875" xlink:href="#m8436073b42" y="236.28"/>
     <use style="fill:#ff0000;stroke:#ff0000;stroke-width:0.5;" x="855.490275" xlink:href="#m8436073b42" y="236.28"/>
     <use style="fill:#ff0000;stroke:#ff0000;stroke-width:0.5;" x="878.4554625" xlink:href="#m8436073b42" y="236.28"/>
     <use style="fill:#ff0000;stroke:#ff0000;stroke-width:0.5;" x="901.42065" xlink:href="#m8436073b42" y="236.28"/>
     <use style="fill:#ff0000;stroke:#ff0000;stroke-width:0.5;" x="924.3858375" xlink:href="#m8436073b42" y="236.28"/>
     <use style="fill:#ff0000;stroke:#ff0000;stroke-width:0.5;" x="947.351025" xlink:href="#m8436073b42" y="236.28"/>
     <use style="fill:#ff0000;stroke:#ff0000;stroke-width:0.5;" x="970.3162125" xlink:href="#m8436073b42" y="236.28"/>
     <use style="fill:#ff0000;stroke:#ff0000;stroke-width:0.5;" x="993.2814" xlink:href="#m8436073b42" y="236.28"/>
     <use style="fill:#ff0000;stroke:#ff0000;stroke-width:0.5;" x="1016.2465875" xlink:href="#m8436073b42" y="236.28"/>
     <use style="fill:#ff0000;stroke:#ff0000;stroke-width:0.5;" x="1039.211775" xlink:href="#m8436073b42" y="236.28"/>
     <use style="fill:#ff0000;stroke:#ff0000;stroke-width:0.5;" x="1062.1769625" xlink:href="#m8436073b42" y="236.28"/>
     <use style="fill:#ff0000;stroke:#ff0000;stroke-width:0.5;" x="1085.14215" xlink:href="#m8436073b42" y="236.28"/>
     <use style="fill:#ff0000;stroke:#ff0000;stroke-width:0.5;" x="1108.1073375" xlink:href="#m8436073b42" y="236.28"/>
     <use style="fill:#ff0000;stroke:#ff0000;stroke-width:0.5;" x="1131.072525" xlink:href="#m8436073b42" y="236.28"/>
     <use style="fill:#ff0000;stroke:#ff0000;stroke-width:0.5;" x="1154.0377125" xlink:href="#m8436073b42" y="236.28"/>
     <use style="fill:#ff0000;stroke:#ff0000;stroke-width:0.5;" x="1177.0029" xlink:href="#m8436073b42" y="236.28"/>
     <use style="fill:#ff0000;stroke:#ff0000;stroke-width:0.5;" x="1199.9680875" xlink:href="#m8436073b42" y="236.28"/>
     <use style="fill:#ff0000;stroke:#ff0000;stroke-width:0.5;" x="1222.933275" xlink:href="#m8436073b42" y="236.28"/>
     <use style="fill:#ff0000;stroke:#ff0000;stroke-width:0.5;" x="1245.8984625" xlink:href="#m8436073b42" y="236.28"/>
     <use style="fill:#ff0000;stroke:#ff0000;stroke-width:0.5;" x="1268.86365" xlink:href="#m8436073b42" y="236.28"/>
     <use style="fill:#ff0000;stroke:#ff0000;stroke-width:0.5;" x="1291.8288375" xlink:href="#m8436073b42" y="236.28"/>
     <use style="fill:#ff0000;stroke:#ff0000;stroke-width:0.5;" x="1314.794025" xlink:href="#m8436073b42" y="236.28"/>
     <use style="fill:#ff0000;stroke:#ff0000;stroke-width:0.5;" x="1337.7592125" xlink:href="#m8436073b42" y="236.28"/>
     <use style="fill:#ff0000;stroke:#ff0000;stroke-width:0.5;" x="1360.7244" xlink:href="#m8436073b42" y="236.28"/>
     <use style="fill:#ff0000;stroke:#ff0000;stroke-width:0.5;" x="1383.6895875" xlink:href="#m8436073b42" y="236.28"/>
     <use style="fill:#ff0000;stroke:#ff0000;stroke-width:0.5;" x="1406.654775" xlink:href="#m8436073b42" y="236.28"/>
     <use style="fill:#ff0000;stroke:#ff0000;stroke-width:0.5;" x="1429.6199625" xlink:href="#m8436073b42" y="236.28"/>
     <use style="fill:#ff0000;stroke:#ff0000;stroke-width:0.5;" x="1452.58515" xlink:href="#m8436073b42" y="236.28"/>
     <use style="fill:#ff0000;stroke:#ff0000;stroke-width:0.5;" x="1475.5503375" xlink:href="#m8436073b42" y="236.28"/>
     <use style="fill:#ff0000;stroke:#ff0000;stroke-width:0.5;" x="1498.515525" xlink:href="#m8436073b42" y="236.28"/>
     <use style="fill:#ff0000;stroke:#ff0000;stroke-width:0.5;" x="1521.4807125" xlink:href="#m8436073b42" y="236.28"/>
     <use style="fill:#ff0000;stroke:#ff0000;stroke-width:0.5;" x="1544.4459" xlink:href="#m8436073b42" y="236.28"/>
     <use style="fill:#ff0000;stroke:#ff0000;stroke-width:0.5;" x="1567.4110875" xlink:href="#m8436073b42" y="236.28"/>
     <use style="fill:#ff0000;stroke:#ff0000;stroke-width:0.5;" x="1590.376275" xlink:href="#m8436073b42" y="236.28"/>
     <use style="fill:#ff0000;stroke:#ff0000;stroke-width:0.5;" x="1613.3414625" xlink:href="#m8436073b42" y="236.28"/>
     <use style="fill:#ff0000;stroke:#ff0000;stroke-width:0.5;" x="1636.30665" xlink:href="#m8436073b42" y="236.28"/>
     <use style="fill:#ff0000;stroke:#ff0000;stroke-width:0.5;" x="1659.2718375" xlink:href="#m8436073b42" y="236.28"/>
     <use style="fill:#ff0000;stroke:#ff0000;stroke-width:0.5;" x="1682.237025" xlink:href="#m8436073b42" y="236.28"/>
     <use style="fill:#ff0000;stroke:#ff0000;stroke-width:0.5;" x="1705.2022125" xlink:href="#m8436073b42" y="236.28"/>
     <use style="fill:#ff0000;stroke:#ff0000;stroke-width:0.5;" x="1728.1674" xlink:href="#m8436073b42" y="236.28"/>
     <use style="fill:#ff0000;stroke:#ff0000;stroke-width:0.5;" x="1751.1325875" xlink:href="#m8436073b42" y="236.28"/>
     <use style="fill:#ff0000;stroke:#ff0000;stroke-width:0.5;" x="1774.097775" xlink:href="#m8436073b42" y="236.28"/>
     <use style="fill:#ff0000;stroke:#ff0000;stroke-width:0.5;" x="1797.0629625" xlink:href="#m8436073b42" y="236.28"/>
     <use style="fill:#ff0000;stroke:#ff0000;stroke-width:0.5;" x="1820.02815" xlink:href="#m8436073b42" y="236.28"/>
     <use style="fill:#ff0000;stroke:#ff0000;stroke-width:0.5;" x="1842.9933375" xlink:href="#m8436073b42" y="236.28"/>
     <use style="fill:#ff0000;stroke:#ff0000;stroke-width:0.5;" x="1865.958525" xlink:href="#m8436073b42" y="236.28"/>
     <use style="fill:#ff0000;stroke:#ff0000;stroke-width:0.5;" x="1888.9237125" xlink:href="#m8436073b42" y="236.28"/>
     <use style="fill:#ff0000;stroke:#ff0000;stroke-width:0.5;" x="1911.8889" xlink:href="#m8436073b42" y="236.28"/>
     <use style="fill:#ff0000;stroke:#ff0000;stroke-width:0.5;" x="1934.8540875" xlink:href="#m8436073b42" y="236.28"/>
     <use style="fill:#ff0000;stroke:#ff0000;stroke-width:0.5;" x="1957.819275" xlink:href="#m8436073b42" y="236.28"/>
     <use style="fill:#ff0000;stroke:#ff0000;stroke-width:0.5;" x="1980.7844625" xlink:href="#m8436073b42" y="236.28"/>
     <use style="fill:#ff0000;stroke:#ff0000;stroke-width:0.5;" x="2003.74965" xlink:href="#m8436073b42" y="236.28"/>
     <use style="fill:#ff0000;stroke:#ff0000;stroke-width:0.5;" x="2026.7148375" xlink:href="#m8436073b42" y="236.28"/>
     <use style="fill:#ff0000;stroke:#ff0000;stroke-width:0.5;" x="2049.680025" xlink:href="#m8436073b42" y="236.28"/>
     <use style="fill:#ff0000;stroke:#ff0000;stroke-width:0.5;" x="2072.6452125" xlink:href="#m8436073b42" y="236.28"/>
     <use style="fill:#ff0000;stroke:#ff0000;stroke-width:0.5;" x="2095.6104" xlink:href="#m8436073b42" y="236.28"/>
     <use style="fill:#ff0000;stroke:#ff0000;stroke-width:0.5;" x="2118.5755875" xlink:href="#m8436073b42" y="236.28"/>
     <use style="fill:#ff0000;stroke:#ff0000;stroke-width:0.5;" x="2141.540775" xlink:href="#m8436073b42" y="236.28"/>
     <use style="fill:#ff0000;stroke:#ff0000;stroke-width:0.5;" x="2164.5059625" xlink:href="#m8436073b42" y="236.28"/>
     <use style="fill:#ff0000;stroke:#ff0000;stroke-width:0.5;" x="2187.47115" xlink:href="#m8436073b42" y="236.28"/>
     <use style="fill:#ff0000;stroke:#ff0000;stroke-width:0.5;" x="2210.4363375" xlink:href="#m8436073b42" y="236.28"/>
     <use style="fill:#ff0000;stroke:#ff0000;stroke-width:0.5;" x="2233.401525" xlink:href="#m8436073b42" y="236.28"/>
     <use style="fill:#ff0000;stroke:#ff0000;stroke-width:0.5;" x="2256.3667125" xlink:href="#m8436073b42" y="236.28"/>
     <use style="fill:#ff0000;stroke:#ff0000;stroke-width:0.5;" x="2279.3319" xlink:href="#m8436073b42" y="236.28"/>
     <use style="fill:#ff0000;stroke:#ff0000;stroke-width:0.5;" x="2302.2970875" xlink:href="#m8436073b42" y="236.28"/>
     <use style="fill:#ff0000;stroke:#ff0000;stroke-width:0.5;" x="2325.262275" xlink:href="#m8436073b42" y="236.28"/>
     <use style="fill:#ff0000;stroke:#ff0000;stroke-width:0.5;" x="2348.2274625" xlink:href="#m8436073b42" y="236.28"/>
     <use style="fill:#ff0000;stroke:#ff0000;stroke-width:0.5;" x="2371.19265" xlink:href="#m8436073b42" y="236.28"/>
     <use style="fill:#ff0000;stroke:#ff0000;stroke-width:0.5;" x="2394.1578375" xlink:href="#m8436073b42" y="236.28"/>
     <use style="fill:#ff0000;stroke:#ff0000;stroke-width:0.5;" x="2417.123025" xlink:href="#m8436073b42" y="236.28"/>
     <use style="fill:#ff0000;stroke:#ff0000;stroke-width:0.5;" x="2440.0882125" xlink:href="#m8436073b42" y="236.28"/>
     <use style="fill:#ff0000;stroke:#ff0000;stroke-width:0.5;" x="2463.0534" xlink:href="#m8436073b42" y="236.28"/>
     <use style="fill:#ff0000;stroke:#ff0000;stroke-width:0.5;" x="2486.0185875" xlink:href="#m8436073b42" y="236.28"/>
     <use style="fill:#ff0000;stroke:#ff0000;stroke-width:0.5;" x="2508.983775" xlink:href="#m8436073b42" y="236.28"/>
     <use style="fill:#ff0000;stroke:#ff0000;stroke-width:0.5;" x="2531.9489625" xlink:href="#m8436073b42" y="236.28"/>
     <use style="fill:#ff0000;stroke:#ff0000;stroke-width:0.5;" x="2554.91415" xlink:href="#m8436073b42" y="236.28"/>
     <use style="fill:#ff0000;stroke:#ff0000;stroke-width:0.5;" x="2577.8793375" xlink:href="#m8436073b42" y="236.28"/>
     <use style="fill:#ff0000;stroke:#ff0000;stroke-width:0.5;" x="2600.844525" xlink:href="#m8436073b42" y="236.28"/>
     <use style="fill:#ff0000;stroke:#ff0000;stroke-width:0.5;" x="2623.8097125" xlink:href="#m8436073b42" y="236.28"/>
     <use style="fill:#ff0000;stroke:#ff0000;stroke-width:0.5;" x="2646.7749" xlink:href="#m8436073b42" y="236.28"/>
     <use style="fill:#ff0000;stroke:#ff0000;stroke-width:0.5;" x="2669.7400875" xlink:href="#m8436073b42" y="236.28"/>
     <use style="fill:#ff0000;stroke:#ff0000;stroke-width:0.5;" x="2692.705275" xlink:href="#m8436073b42" y="236.28"/>
     <use style="fill:#ff0000;stroke:#ff0000;stroke-width:0.5;" x="2715.6704625" xlink:href="#m8436073b42" y="236.28"/>
     <use style="fill:#ff0000;stroke:#ff0000;stroke-width:0.5;" x="2738.63565" xlink:href="#m8436073b42" y="236.28"/>
     <use style="fill:#ff0000;stroke:#ff0000;stroke-width:0.5;" x="2761.6008375" xlink:href="#m8436073b42" y="236.28"/>
     <use style="fill:#ff0000;stroke:#ff0000;stroke-width:0.5;" x="2784.566025" xlink:href="#m8436073b42" y="236.28"/>
     <use style="fill:#ff0000;stroke:#ff0000;stroke-width:0.5;" x="2807.5312125" xlink:href="#m8436073b42" y="236.28"/>
     <use style="fill:#ff0000;stroke:#ff0000;stroke-width:0.5;" x="2830.4964" xlink:href="#m8436073b42" y="236.28"/>
     <use style="fill:#ff0000;stroke:#ff0000;stroke-width:0.5;" x="2853.4615875" xlink:href="#m8436073b42" y="236.28"/>
     <use style="fill:#ff0000;stroke:#ff0000;stroke-width:0.5;" x="2876.426775" xlink:href="#m8436073b42" y="236.28"/>
     <use style="fill:#ff0000;stroke:#ff0000;stroke-width:0.5;" x="2899.3919625" xlink:href="#m8436073b42" y="236.28"/>
     <use style="fill:#ff0000;stroke:#ff0000;stroke-width:0.5;" x="2922.35715" xlink:href="#m8436073b42" y="236.28"/>
     <use style="fill:#ff0000;stroke:#ff0000;stroke-width:0.5;" x="2945.3223375" xlink:href="#m8436073b42" y="236.28"/>
     <use style="fill:#ff0000;stroke:#ff0000;stroke-width:0.5;" x="2968.287525" xlink:href="#m8436073b42" y="236.28"/>
     <use style="fill:#ff0000;stroke:#ff0000;stroke-width:0.5;" x="2991.2527125" xlink:href="#m8436073b42" y="236.28"/>
     <use style="fill:#ff0000;stroke:#ff0000;stroke-width:0.5;" x="3014.2179" xlink:href="#m8436073b42" y="236.28"/>
     <use style="fill:#ff0000;stroke:#ff0000;stroke-width:0.5;" x="3037.1830875" xlink:href="#m8436073b42" y="236.28"/>
     <use style="fill:#ff0000;stroke:#ff0000;stroke-width:0.5;" x="3060.148275" xlink:href="#m8436073b42" y="236.28"/>
     <use style="fill:#ff0000;stroke:#ff0000;stroke-width:0.5;" x="3083.1134625" xlink:href="#m8436073b42" y="236.28"/>
     <use style="fill:#ff0000;stroke:#ff0000;stroke-width:0.5;" x="3106.07865" xlink:href="#m8436073b42" y="236.28"/>
     <use style="fill:#ff0000;stroke:#ff0000;stroke-width:0.5;" x="3129.0438375" xlink:href="#m8436073b42" y="236.28"/>
     <use style="fill:#ff0000;stroke:#ff0000;stroke-width:0.5;" x="3152.009025" xlink:href="#m8436073b42" y="236.28"/>
     <use style="fill:#ff0000;stroke:#ff0000;stroke-width:0.5;" x="3174.9742125" xlink:href="#m8436073b42" y="236.28"/>
     <use style="fill:#ff0000;stroke:#ff0000;stroke-width:0.5;" x="3197.9394" xlink:href="#m8436073b42" y="236.28"/>
     <use style="fill:#ff0000;stroke:#ff0000;stroke-width:0.5;" x="3220.9045875" xlink:href="#m8436073b42" y="236.28"/>
     <use style="fill:#ff0000;stroke:#ff0000;stroke-width:0.5;" x="3243.869775" xlink:href="#m8436073b42" y="236.28"/>
     <use style="fill:#ff0000;stroke:#ff0000;stroke-width:0.5;" x="3266.8349625" xlink:href="#m8436073b42" y="236.28"/>
     <use style="fill:#ff0000;stroke:#ff0000;stroke-width:0.5;" x="3289.80015" xlink:href="#m8436073b42" y="236.28"/>
     <use style="fill:#ff0000;stroke:#ff0000;stroke-width:0.5;" x="3312.7653375" xlink:href="#m8436073b42" y="236.28"/>
     <use style="fill:#ff0000;stroke:#ff0000;stroke-width:0.5;" x="3335.730525" xlink:href="#m8436073b42" y="236.28"/>
     <use style="fill:#ff0000;stroke:#ff0000;stroke-width:0.5;" x="3358.6957125" xlink:href="#m8436073b42" y="236.28"/>
     <use style="fill:#ff0000;stroke:#ff0000;stroke-width:0.5;" x="3381.6609" xlink:href="#m8436073b42" y="236.28"/>
     <use style="fill:#ff0000;stroke:#ff0000;stroke-width:0.5;" x="3404.6260875" xlink:href="#m8436073b42" y="236.28"/>
     <use style="fill:#ff0000;stroke:#ff0000;stroke-width:0.5;" x="3427.591275" xlink:href="#m8436073b42" y="236.28"/>
     <use style="fill:#ff0000;stroke:#ff0000;stroke-width:0.5;" x="3450.5564625" xlink:href="#m8436073b42" y="236.28"/>
     <use style="fill:#ff0000;stroke:#ff0000;stroke-width:0.5;" x="3473.52165" xlink:href="#m8436073b42" y="236.28"/>
     <use style="fill:#ff0000;stroke:#ff0000;stroke-width:0.5;" x="3496.4868375" xlink:href="#m8436073b42" y="236.28"/>
     <use style="fill:#ff0000;stroke:#ff0000;stroke-width:0.5;" x="3519.452025" xlink:href="#m8436073b42" y="236.28"/>
     <use style="fill:#ff0000;stroke:#ff0000;stroke-width:0.5;" x="3542.4172125" xlink:href="#m8436073b42" y="236.28"/>
     <use style="fill:#ff0000;stroke:#ff0000;stroke-width:0.5;" x="3565.3824" xlink:href="#m8436073b42" y="236.28"/>
     <use style="fill:#ff0000;stroke:#ff0000;stroke-width:0.5;" x="3588.3475875" xlink:href="#m8436073b42" y="236.28"/>
     <use style="fill:#ff0000;stroke:#ff0000;stroke-width:0.5;" x="3611.312775" xlink:href="#m8436073b42" y="236.28"/>
     <use style="fill:#ff0000;stroke:#ff0000;stroke-width:0.5;" x="3634.2779625" xlink:href="#m8436073b42" y="236.28"/>
     <use style="fill:#ff0000;stroke:#ff0000;stroke-width:0.5;" x="3657.24315" xlink:href="#m8436073b42" y="236.28"/>
     <use style="fill:#ff0000;stroke:#ff0000;stroke-width:0.5;" x="3680.2083375" xlink:href="#m8436073b42" y="236.28"/>
     <use style="fill:#ff0000;stroke:#ff0000;stroke-width:0.5;" x="3703.173525" xlink:href="#m8436073b42" y="236.28"/>
     <use style="fill:#ff0000;stroke:#ff0000;stroke-width:0.5;" x="3726.1387125" xlink:href="#m8436073b42" y="236.28"/>
     <use style="fill:#ff0000;stroke:#ff0000;stroke-width:0.5;" x="3749.1039" xlink:href="#m8436073b42" y="236.28"/>
     <use style="fill:#ff0000;stroke:#ff0000;stroke-width:0.5;" x="3772.0690875" xlink:href="#m8436073b42" y="236.28"/>
     <use style="fill:#ff0000;stroke:#ff0000;stroke-width:0.5;" x="3795.034275" xlink:href="#m8436073b42" y="236.28"/>
     <use style="fill:#ff0000;stroke:#ff0000;stroke-width:0.5;" x="3817.9994625" xlink:href="#m8436073b42" y="236.28"/>
     <use style="fill:#ff0000;stroke:#ff0000;stroke-width:0.5;" x="3840.96465" xlink:href="#m8436073b42" y="236.28"/>
     <use style="fill:#ff0000;stroke:#ff0000;stroke-width:0.5;" x="3863.9298375" xlink:href="#m8436073b42" y="236.28"/>
     <use style="fill:#ff0000;stroke:#ff0000;stroke-width:0.5;" x="3886.895025" xlink:href="#m8436073b42" y="236.28"/>
     <use style="fill:#ff0000;stroke:#ff0000;stroke-width:0.5;" x="3909.8602125" xlink:href="#m8436073b42" y="236.28"/>
     <use style="fill:#ff0000;stroke:#ff0000;stroke-width:0.5;" x="3932.8254" xlink:href="#m8436073b42" y="236.28"/>
     <use style="fill:#ff0000;stroke:#ff0000;stroke-width:0.5;" x="3955.7905875" xlink:href="#m8436073b42" y="236.28"/>
     <use style="fill:#ff0000;stroke:#ff0000;stroke-width:0.5;" x="3978.755775" xlink:href="#m8436073b42" y="236.28"/>
     <use style="fill:#ff0000;stroke:#ff0000;stroke-width:0.5;" x="4001.7209625" xlink:href="#m8436073b42" y="236.28"/>
     <use style="fill:#ff0000;stroke:#ff0000;stroke-width:0.5;" x="4024.68615" xlink:href="#m8436073b42" y="236.28"/>
     <use style="fill:#ff0000;stroke:#ff0000;stroke-width:0.5;" x="4047.6513375" xlink:href="#m8436073b42" y="236.28"/>
     <use style="fill:#ff0000;stroke:#ff0000;stroke-width:0.5;" x="4070.616525" xlink:href="#m8436073b42" y="236.28"/>
     <use style="fill:#ff0000;stroke:#ff0000;stroke-width:0.5;" x="4093.5817125" xlink:href="#m8436073b42" y="236.28"/>
     <use style="fill:#ff0000;stroke:#ff0000;stroke-width:0.5;" x="4116.5469" xlink:href="#m8436073b42" y="236.28"/>
     <use style="fill:#ff0000;stroke:#ff0000;stroke-width:0.5;" x="4139.5120875" xlink:href="#m8436073b42" y="236.28"/>
     <use style="fill:#ff0000;stroke:#ff0000;stroke-width:0.5;" x="4162.477275" xlink:href="#m8436073b42" y="236.28"/>
     <use style="fill:#ff0000;stroke:#ff0000;stroke-width:0.5;" x="4185.4424625" xlink:href="#m8436073b42" y="236.28"/>
     <use style="fill:#ff0000;stroke:#ff0000;stroke-width:0.5;" x="4208.40765" xlink:href="#m8436073b42" y="236.28"/>
     <use style="fill:#ff0000;stroke:#ff0000;stroke-width:0.5;" x="4231.3728375" xlink:href="#m8436073b42" y="236.28"/>
     <use style="fill:#ff0000;stroke:#ff0000;stroke-width:0.5;" x="4254.338025" xlink:href="#m8436073b42" y="236.28"/>
     <use style="fill:#ff0000;stroke:#ff0000;stroke-width:0.5;" x="4277.3032125" xlink:href="#m8436073b42" y="236.28"/>
     <use style="fill:#ff0000;stroke:#ff0000;stroke-width:0.5;" x="4300.2684" xlink:href="#m8436073b42" y="236.28"/>
     <use style="fill:#ff0000;stroke:#ff0000;stroke-width:0.5;" x="4323.2335875" xlink:href="#m8436073b42" y="236.28"/>
     <use style="fill:#ff0000;stroke:#ff0000;stroke-width:0.5;" x="4346.198775" xlink:href="#m8436073b42" y="236.28"/>
    </g>
   </g>
   <g id="patch_3">
    <path d="M 148.1625 64.44 
L 1066.77 64.44 
" style="fill:none;stroke:#000000;stroke-linecap:square;stroke-linejoin:miter;"/>
   </g>
   <g id="patch_4">
    <path d="M 1066.77 579.96 
L 1066.77 64.44 
" style="fill:none;stroke:#000000;stroke-linecap:square;stroke-linejoin:miter;"/>
   </g>
   <g id="patch_5">
    <path d="M 148.1625 579.96 
L 1066.77 579.96 
" style="fill:none;stroke:#000000;stroke-linecap:square;stroke-linejoin:miter;"/>
   </g>
   <g id="patch_6">
    <path d="M 148.1625 579.96 
L 148.1625 64.44 
" style="fill:none;stroke:#000000;stroke-linecap:square;stroke-linejoin:miter;"/>
   </g>
   <g id="matplotlib.axis_1">
    <g id="xtick_1">
     <g id="line2d_3">
      <defs>
       <path d="M 0 0 
L 0 -4 
" id="m717d5392ad" style="stroke:#000000;stroke-width:0.5;"/>
      </defs>
      <g>
       <use style="stroke:#000000;stroke-width:0.5;" x="148.1625" xlink:href="#m717d5392ad" y="579.96"/>
      </g>
     </g>
     <g id="line2d_4">
      <defs>
       <path d="M 0 0 
L 0 4 
" id="m57511558c3" style="stroke:#000000;stroke-width:0.5;"/>
      </defs>
      <g>
       <use style="stroke:#000000;stroke-width:0.5;" x="148.1625" xlink:href="#m57511558c3" y="64.44"/>
      </g>
     </g>
     <g id="text_1">
      <!-- 8.0 -->
      <defs>
       <path d="M 31.78125 34.625 
Q 24.75 34.625 20.71875 30.859375 
Q 16.703125 27.09375 16.703125 20.515625 
Q 16.703125 13.921875 20.71875 10.15625 
Q 24.75 6.390625 31.78125 6.390625 
Q 38.8125 6.390625 42.859375 10.171875 
Q 46.921875 13.96875 46.921875 20.515625 
Q 46.921875 27.09375 42.890625 30.859375 
Q 38.875 34.625 31.78125 34.625 
M 21.921875 38.8125 
Q 15.578125 40.375 12.03125 44.71875 
Q 8.5 49.078125 8.5 55.328125 
Q 8.5 64.0625 14.71875 69.140625 
Q 20.953125 74.21875 31.78125 74.21875 
Q 42.671875 74.21875 48.875 69.140625 
Q 55.078125 64.0625 55.078125 55.328125 
Q 55.078125 49.078125 51.53125 44.71875 
Q 48 40.375 41.703125 38.8125 
Q 48.828125 37.15625 52.796875 32.3125 
Q 56.78125 27.484375 56.78125 20.515625 
Q 56.78125 9.90625 50.3125 4.234375 
Q 43.84375 -1.421875 31.78125 -1.421875 
Q 19.734375 -1.421875 13.25 4.234375 
Q 6.78125 9.90625 6.78125 20.515625 
Q 6.78125 27.484375 10.78125 32.3125 
Q 14.796875 37.15625 21.921875 38.8125 
M 18.3125 54.390625 
Q 18.3125 48.734375 21.84375 45.5625 
Q 25.390625 42.390625 31.78125 42.390625 
Q 38.140625 42.390625 41.71875 45.5625 
Q 45.3125 48.734375 45.3125 54.390625 
Q 45.3125 60.0625 41.71875 63.234375 
Q 38.140625 66.40625 31.78125 66.40625 
Q 25.390625 66.40625 21.84375 63.234375 
Q 18.3125 60.0625 18.3125 54.390625 
" id="BitstreamVeraSans-Roman-38"/>
       <path d="M 10.6875 12.40625 
L 21 12.40625 
L 21 0 
L 10.6875 0 
z
" id="BitstreamVeraSans-Roman-2e"/>
       <path d="M 31.78125 66.40625 
Q 24.171875 66.40625 20.328125 58.90625 
Q 16.5 51.421875 16.5 36.375 
Q 16.5 21.390625 20.328125 13.890625 
Q 24.171875 6.390625 31.78125 6.390625 
Q 39.453125 6.390625 43.28125 13.890625 
Q 47.125 21.390625 47.125 36.375 
Q 47.125 51.421875 43.28125 58.90625 
Q 39.453125 66.40625 31.78125 66.40625 
M 31.78125 74.21875 
Q 44.046875 74.21875 50.515625 64.515625 
Q 56.984375 54.828125 56.984375 36.375 
Q 56.984375 17.96875 50.515625 8.265625 
Q 44.046875 -1.421875 31.78125 -1.421875 
Q 19.53125 -1.421875 13.0625 8.265625 
Q 6.59375 17.96875 6.59375 36.375 
Q 6.59375 54.828125 13.0625 64.515625 
Q 19.53125 74.21875 31.78125 74.21875 
" id="BitstreamVeraSans-Roman-30"/>
      </defs>
      <g transform="translate(138.620625 593.078125)scale(0.12 -0.12)">
       <use xlink:href="#BitstreamVeraSans-Roman-38"/>
       <use x="63.623046875" xlink:href="#BitstreamVeraSans-Roman-2e"/>
       <use x="95.41015625" xlink:href="#BitstreamVeraSans-Roman-30"/>
      </g>
     </g>
    </g>
    <g id="xtick_2">
     <g id="line2d_5">
      <g>
       <use style="stroke:#000000;stroke-width:0.5;" x="331.884" xlink:href="#m717d5392ad" y="579.96"/>
      </g>
     </g>
     <g id="line2d_6">
      <g>
       <use style="stroke:#000000;stroke-width:0.5;" x="331.884" xlink:href="#m57511558c3" y="64.44"/>
      </g>
     </g>
     <g id="text_2">
      <!-- 8.2 -->
      <defs>
       <path d="M 19.1875 8.296875 
L 53.609375 8.296875 
L 53.609375 0 
L 7.328125 0 
L 7.328125 8.296875 
Q 12.9375 14.109375 22.625 23.890625 
Q 32.328125 33.6875 34.8125 36.53125 
Q 39.546875 41.84375 41.421875 45.53125 
Q 43.3125 49.21875 43.3125 52.78125 
Q 43.3125 58.59375 39.234375 62.25 
Q 35.15625 65.921875 28.609375 65.921875 
Q 23.96875 65.921875 18.8125 64.3125 
Q 13.671875 62.703125 7.8125 59.421875 
L 7.8125 69.390625 
Q 13.765625 71.78125 18.9375 73 
Q 24.125 74.21875 28.421875 74.21875 
Q 39.75 74.21875 46.484375 68.546875 
Q 53.21875 62.890625 53.21875 53.421875 
Q 53.21875 48.921875 51.53125 44.890625 
Q 49.859375 40.875 45.40625 35.40625 
Q 44.1875 33.984375 37.640625 27.21875 
Q 31.109375 20.453125 19.1875 8.296875 
" id="BitstreamVeraSans-Roman-32"/>
      </defs>
      <g transform="translate(322.342125 593.078125)scale(0.12 -0.12)">
       <use xlink:href="#BitstreamVeraSans-Roman-38"/>
       <use x="63.623046875" xlink:href="#BitstreamVeraSans-Roman-2e"/>
       <use x="95.41015625" xlink:href="#BitstreamVeraSans-Roman-32"/>
      </g>
     </g>
    </g>
    <g id="xtick_3">
     <g id="line2d_7">
      <g>
       <use style="stroke:#000000;stroke-width:0.5;" x="515.6055" xlink:href="#m717d5392ad" y="579.96"/>
      </g>
     </g>
     <g id="line2d_8">
      <g>
       <use style="stroke:#000000;stroke-width:0.5;" x="515.6055" xlink:href="#m57511558c3" y="64.44"/>
      </g>
     </g>
     <g id="text_3">
      <!-- 8.4 -->
      <defs>
       <path d="M 37.796875 64.3125 
L 12.890625 25.390625 
L 37.796875 25.390625 
z
M 35.203125 72.90625 
L 47.609375 72.90625 
L 47.609375 25.390625 
L 58.015625 25.390625 
L 58.015625 17.1875 
L 47.609375 17.1875 
L 47.609375 0 
L 37.796875 0 
L 37.796875 17.1875 
L 4.890625 17.1875 
L 4.890625 26.703125 
z
" id="BitstreamVeraSans-Roman-34"/>
      </defs>
      <g transform="translate(506.063625 593.078125)scale(0.12 -0.12)">
       <use xlink:href="#BitstreamVeraSans-Roman-38"/>
       <use x="63.623046875" xlink:href="#BitstreamVeraSans-Roman-2e"/>
       <use x="95.41015625" xlink:href="#BitstreamVeraSans-Roman-34"/>
      </g>
     </g>
    </g>
    <g id="xtick_4">
     <g id="line2d_9">
      <g>
       <use style="stroke:#000000;stroke-width:0.5;" x="699.327" xlink:href="#m717d5392ad" y="579.96"/>
      </g>
     </g>
     <g id="line2d_10">
      <g>
       <use style="stroke:#000000;stroke-width:0.5;" x="699.327" xlink:href="#m57511558c3" y="64.44"/>
      </g>
     </g>
     <g id="text_4">
      <!-- 8.6 -->
      <defs>
       <path d="M 33.015625 40.375 
Q 26.375 40.375 22.484375 35.828125 
Q 18.609375 31.296875 18.609375 23.390625 
Q 18.609375 15.53125 22.484375 10.953125 
Q 26.375 6.390625 33.015625 6.390625 
Q 39.65625 6.390625 43.53125 10.953125 
Q 47.40625 15.53125 47.40625 23.390625 
Q 47.40625 31.296875 43.53125 35.828125 
Q 39.65625 40.375 33.015625 40.375 
M 52.59375 71.296875 
L 52.59375 62.3125 
Q 48.875 64.0625 45.09375 64.984375 
Q 41.3125 65.921875 37.59375 65.921875 
Q 27.828125 65.921875 22.671875 59.328125 
Q 17.53125 52.734375 16.796875 39.40625 
Q 19.671875 43.65625 24.015625 45.921875 
Q 28.375 48.1875 33.59375 48.1875 
Q 44.578125 48.1875 50.953125 41.515625 
Q 57.328125 34.859375 57.328125 23.390625 
Q 57.328125 12.15625 50.6875 5.359375 
Q 44.046875 -1.421875 33.015625 -1.421875 
Q 20.359375 -1.421875 13.671875 8.265625 
Q 6.984375 17.96875 6.984375 36.375 
Q 6.984375 53.65625 15.1875 63.9375 
Q 23.390625 74.21875 37.203125 74.21875 
Q 40.921875 74.21875 44.703125 73.484375 
Q 48.484375 72.75 52.59375 71.296875 
" id="BitstreamVeraSans-Roman-36"/>
      </defs>
      <g transform="translate(689.785125 593.078125)scale(0.12 -0.12)">
       <use xlink:href="#BitstreamVeraSans-Roman-38"/>
       <use x="63.623046875" xlink:href="#BitstreamVeraSans-Roman-2e"/>
       <use x="95.41015625" xlink:href="#BitstreamVeraSans-Roman-36"/>
      </g>
     </g>
    </g>
    <g id="xtick_5">
     <g id="line2d_11">
      <g>
       <use style="stroke:#000000;stroke-width:0.5;" x="883.0485" xlink:href="#m717d5392ad" y="579.96"/>
      </g>
     </g>
     <g id="line2d_12">
      <g>
       <use style="stroke:#000000;stroke-width:0.5;" x="883.0485" xlink:href="#m57511558c3" y="64.44"/>
      </g>
     </g>
     <g id="text_5">
      <!-- 8.8 -->
      <g transform="translate(873.506625 593.078125)scale(0.12 -0.12)">
       <use xlink:href="#BitstreamVeraSans-Roman-38"/>
       <use x="63.623046875" xlink:href="#BitstreamVeraSans-Roman-2e"/>
       <use x="95.41015625" xlink:href="#BitstreamVeraSans-Roman-38"/>
      </g>
     </g>
    </g>
    <g id="xtick_6">
     <g id="line2d_13">
      <g>
       <use style="stroke:#000000;stroke-width:0.5;" x="1066.77" xlink:href="#m717d5392ad" y="579.96"/>
      </g>
     </g>
     <g id="line2d_14">
      <g>
       <use style="stroke:#000000;stroke-width:0.5;" x="1066.77" xlink:href="#m57511558c3" y="64.44"/>
      </g>
     </g>
     <g id="text_6">
      <!-- 9.0 -->
      <defs>
       <path d="M 10.984375 1.515625 
L 10.984375 10.5 
Q 14.703125 8.734375 18.5 7.8125 
Q 22.3125 6.890625 25.984375 6.890625 
Q 35.75 6.890625 40.890625 13.453125 
Q 46.046875 20.015625 46.78125 33.40625 
Q 43.953125 29.203125 39.59375 26.953125 
Q 35.25 24.703125 29.984375 24.703125 
Q 19.046875 24.703125 12.671875 31.3125 
Q 6.296875 37.9375 6.296875 49.421875 
Q 6.296875 60.640625 12.9375 67.421875 
Q 19.578125 74.21875 30.609375 74.21875 
Q 43.265625 74.21875 49.921875 64.515625 
Q 56.59375 54.828125 56.59375 36.375 
Q 56.59375 19.140625 48.40625 8.859375 
Q 40.234375 -1.421875 26.421875 -1.421875 
Q 22.703125 -1.421875 18.890625 -0.6875 
Q 15.09375 0.046875 10.984375 1.515625 
M 30.609375 32.421875 
Q 37.25 32.421875 41.125 36.953125 
Q 45.015625 41.5 45.015625 49.421875 
Q 45.015625 57.28125 41.125 61.84375 
Q 37.25 66.40625 30.609375 66.40625 
Q 23.96875 66.40625 20.09375 61.84375 
Q 16.21875 57.28125 16.21875 49.421875 
Q 16.21875 41.5 20.09375 36.953125 
Q 23.96875 32.421875 30.609375 32.421875 
" id="BitstreamVeraSans-Roman-39"/>
      </defs>
      <g transform="translate(1057.228125 593.078125)scale(0.12 -0.12)">
       <use xlink:href="#BitstreamVeraSans-Roman-39"/>
       <use x="63.623046875" xlink:href="#BitstreamVeraSans-Roman-2e"/>
       <use x="95.41015625" xlink:href="#BitstreamVeraSans-Roman-30"/>
      </g>
     </g>
    </g>
    <g id="text_7">
     <!-- Time (sec) -->
     <defs>
      <path id="BitstreamVeraSans-Roman-20"/>
      <path d="M 8.015625 75.875 
L 15.828125 75.875 
Q 23.140625 64.359375 26.78125 53.3125 
Q 30.421875 42.28125 30.421875 31.390625 
Q 30.421875 20.453125 26.78125 9.375 
Q 23.140625 -1.703125 15.828125 -13.1875 
L 8.015625 -13.1875 
Q 14.5 -2 17.703125 9.0625 
Q 20.90625 20.125 20.90625 31.390625 
Q 20.90625 42.671875 17.703125 53.65625 
Q 14.5 64.65625 8.015625 75.875 
" id="BitstreamVeraSans-Roman-29"/>
      <path d="M 31 75.875 
Q 24.46875 64.65625 21.28125 53.65625 
Q 18.109375 42.671875 18.109375 31.390625 
Q 18.109375 20.125 21.3125 9.0625 
Q 24.515625 -2 31 -13.1875 
L 23.1875 -13.1875 
Q 15.875 -1.703125 12.234375 9.375 
Q 8.59375 20.453125 8.59375 31.390625 
Q 8.59375 42.28125 12.203125 53.3125 
Q 15.828125 64.359375 23.1875 75.875 
z
" id="BitstreamVeraSans-Roman-28"/>
      <path d="M 9.421875 54.6875 
L 18.40625 54.6875 
L 18.40625 0 
L 9.421875 0 
z
M 9.421875 75.984375 
L 18.40625 75.984375 
L 18.40625 64.59375 
L 9.421875 64.59375 
z
" id="BitstreamVeraSans-Roman-69"/>
      <path d="M 52 44.1875 
Q 55.375 50.25 60.0625 53.125 
Q 64.75 56 71.09375 56 
Q 79.640625 56 84.28125 50.015625 
Q 88.921875 44.046875 88.921875 33.015625 
L 88.921875 0 
L 79.890625 0 
L 79.890625 32.71875 
Q 79.890625 40.578125 77.09375 44.375 
Q 74.3125 48.1875 68.609375 48.1875 
Q 61.625 48.1875 57.5625 43.546875 
Q 53.515625 38.921875 53.515625 30.90625 
L 53.515625 0 
L 44.484375 0 
L 44.484375 32.71875 
Q 44.484375 40.625 41.703125 44.40625 
Q 38.921875 48.1875 33.109375 48.1875 
Q 26.21875 48.1875 22.15625 43.53125 
Q 18.109375 38.875 18.109375 30.90625 
L 18.109375 0 
L 9.078125 0 
L 9.078125 54.6875 
L 18.109375 54.6875 
L 18.109375 46.1875 
Q 21.1875 51.21875 25.484375 53.609375 
Q 29.78125 56 35.6875 56 
Q 41.65625 56 45.828125 52.96875 
Q 50 49.953125 52 44.1875 
" id="BitstreamVeraSans-Roman-6d"/>
      <path d="M 56.203125 29.59375 
L 56.203125 25.203125 
L 14.890625 25.203125 
Q 15.484375 15.921875 20.484375 11.0625 
Q 25.484375 6.203125 34.421875 6.203125 
Q 39.59375 6.203125 44.453125 7.46875 
Q 49.3125 8.734375 54.109375 11.28125 
L 54.109375 2.78125 
Q 49.265625 0.734375 44.1875 -0.34375 
Q 39.109375 -1.421875 33.890625 -1.421875 
Q 20.796875 -1.421875 13.15625 6.1875 
Q 5.515625 13.8125 5.515625 26.8125 
Q 5.515625 40.234375 12.765625 48.109375 
Q 20.015625 56 32.328125 56 
Q 43.359375 56 49.78125 48.890625 
Q 56.203125 41.796875 56.203125 29.59375 
M 47.21875 32.234375 
Q 47.125 39.59375 43.09375 43.984375 
Q 39.0625 48.390625 32.421875 48.390625 
Q 24.90625 48.390625 20.390625 44.140625 
Q 15.875 39.890625 15.1875 32.171875 
z
" id="BitstreamVeraSans-Roman-65"/>
      <path d="M -0.296875 72.90625 
L 61.375 72.90625 
L 61.375 64.59375 
L 35.5 64.59375 
L 35.5 0 
L 25.59375 0 
L 25.59375 64.59375 
L -0.296875 64.59375 
z
" id="BitstreamVeraSans-Roman-54"/>
      <path d="M 44.28125 53.078125 
L 44.28125 44.578125 
Q 40.484375 46.53125 36.375 47.5 
Q 32.28125 48.484375 27.875 48.484375 
Q 21.1875 48.484375 17.84375 46.4375 
Q 14.5 44.390625 14.5 40.28125 
Q 14.5 37.15625 16.890625 35.375 
Q 19.28125 33.59375 26.515625 31.984375 
L 29.59375 31.296875 
Q 39.15625 29.25 43.1875 25.515625 
Q 47.21875 21.78125 47.21875 15.09375 
Q 47.21875 7.46875 41.1875 3.015625 
Q 35.15625 -1.421875 24.609375 -1.421875 
Q 20.21875 -1.421875 15.453125 -0.5625 
Q 10.6875 0.296875 5.421875 2 
L 5.421875 11.28125 
Q 10.40625 8.6875 15.234375 7.390625 
Q 20.0625 6.109375 24.8125 6.109375 
Q 31.15625 6.109375 34.5625 8.28125 
Q 37.984375 10.453125 37.984375 14.40625 
Q 37.984375 18.0625 35.515625 20.015625 
Q 33.0625 21.96875 24.703125 23.78125 
L 21.578125 24.515625 
Q 13.234375 26.265625 9.515625 29.90625 
Q 5.8125 33.546875 5.8125 39.890625 
Q 5.8125 47.609375 11.28125 51.796875 
Q 16.75 56 26.8125 56 
Q 31.78125 56 36.171875 55.265625 
Q 40.578125 54.546875 44.28125 53.078125 
" id="BitstreamVeraSans-Roman-73"/>
      <path d="M 48.78125 52.59375 
L 48.78125 44.1875 
Q 44.96875 46.296875 41.140625 47.34375 
Q 37.3125 48.390625 33.40625 48.390625 
Q 24.65625 48.390625 19.8125 42.84375 
Q 14.984375 37.3125 14.984375 27.296875 
Q 14.984375 17.28125 19.8125 11.734375 
Q 24.65625 6.203125 33.40625 6.203125 
Q 37.3125 6.203125 41.140625 7.25 
Q 44.96875 8.296875 48.78125 10.40625 
L 48.78125 2.09375 
Q 45.015625 0.34375 40.984375 -0.53125 
Q 36.96875 -1.421875 32.421875 -1.421875 
Q 20.0625 -1.421875 12.78125 6.34375 
Q 5.515625 14.109375 5.515625 27.296875 
Q 5.515625 40.671875 12.859375 48.328125 
Q 20.21875 56 33.015625 56 
Q 37.15625 56 41.109375 55.140625 
Q 45.0625 54.296875 48.78125 52.59375 
" id="BitstreamVeraSans-Roman-63"/>
     </defs>
     <g transform="translate(575.8959375 609.691875)scale(0.12 -0.12)">
      <use xlink:href="#BitstreamVeraSans-Roman-54"/>
      <use x="61.037109375" xlink:href="#BitstreamVeraSans-Roman-69"/>
      <use x="88.8203125" xlink:href="#BitstreamVeraSans-Roman-6d"/>
      <use x="186.232421875" xlink:href="#BitstreamVeraSans-Roman-65"/>
      <use x="247.755859375" xlink:href="#BitstreamVeraSans-Roman-20"/>
      <use x="279.54296875" xlink:href="#BitstreamVeraSans-Roman-28"/>
      <use x="318.556640625" xlink:href="#BitstreamVeraSans-Roman-73"/>
      <use x="370.65625" xlink:href="#BitstreamVeraSans-Roman-65"/>
      <use x="432.1796875" xlink:href="#BitstreamVeraSans-Roman-63"/>
      <use x="487.16015625" xlink:href="#BitstreamVeraSans-Roman-29"/>
     </g>
    </g>
   </g>
   <g id="matplotlib.axis_2">
    <g id="ytick_1">
     <g id="line2d_15">
      <defs>
       <path d="M 0 0 
L 4 0 
" id="m2f6dcd76e2" style="stroke:#000000;stroke-width:0.5;"/>
      </defs>
      <g>
       <use style="stroke:#000000;stroke-width:0.5;" x="148.1625" xlink:href="#m2f6dcd76e2" y="579.96"/>
      </g>
     </g>
     <g id="line2d_16">
      <defs>
       <path d="M 0 0 
L -4 0 
" id="maf4bffbfae" style="stroke:#000000;stroke-width:0.5;"/>
      </defs>
      <g>
       <use style="stroke:#000000;stroke-width:0.5;" x="1066.77" xlink:href="#maf4bffbfae" y="579.96"/>
      </g>
     </g>
     <g id="text_8">
      <!-- 0.0 -->
      <g transform="translate(125.07875 583.27125)scale(0.12 -0.12)">
       <use xlink:href="#BitstreamVeraSans-Roman-30"/>
       <use x="63.623046875" xlink:href="#BitstreamVeraSans-Roman-2e"/>
       <use x="95.41015625" xlink:href="#BitstreamVeraSans-Roman-30"/>
      </g>
     </g>
    </g>
    <g id="ytick_2">
     <g id="line2d_17">
      <g>
       <use style="stroke:#000000;stroke-width:0.5;" x="148.1625" xlink:href="#m2f6dcd76e2" y="511.224"/>
      </g>
     </g>
     <g id="line2d_18">
      <g>
       <use style="stroke:#000000;stroke-width:0.5;" x="1066.77" xlink:href="#maf4bffbfae" y="511.224"/>
      </g>
     </g>
     <g id="text_9">
      <!-- 0.2 -->
      <g transform="translate(125.07875 514.53525)scale(0.12 -0.12)">
       <use xlink:href="#BitstreamVeraSans-Roman-30"/>
       <use x="63.623046875" xlink:href="#BitstreamVeraSans-Roman-2e"/>
       <use x="95.41015625" xlink:href="#BitstreamVeraSans-Roman-32"/>
      </g>
     </g>
    </g>
    <g id="ytick_3">
     <g id="line2d_19">
      <g>
       <use style="stroke:#000000;stroke-width:0.5;" x="148.1625" xlink:href="#m2f6dcd76e2" y="442.488"/>
      </g>
     </g>
     <g id="line2d_20">
      <g>
       <use style="stroke:#000000;stroke-width:0.5;" x="1066.77" xlink:href="#maf4bffbfae" y="442.488"/>
      </g>
     </g>
     <g id="text_10">
      <!-- 0.4 -->
      <g transform="translate(125.07875 445.79925)scale(0.12 -0.12)">
       <use xlink:href="#BitstreamVeraSans-Roman-30"/>
       <use x="63.623046875" xlink:href="#BitstreamVeraSans-Roman-2e"/>
       <use x="95.41015625" xlink:href="#BitstreamVeraSans-Roman-34"/>
      </g>
     </g>
    </g>
    <g id="ytick_4">
     <g id="line2d_21">
      <g>
       <use style="stroke:#000000;stroke-width:0.5;" x="148.1625" xlink:href="#m2f6dcd76e2" y="373.752"/>
      </g>
     </g>
     <g id="line2d_22">
      <g>
       <use style="stroke:#000000;stroke-width:0.5;" x="1066.77" xlink:href="#maf4bffbfae" y="373.752"/>
      </g>
     </g>
     <g id="text_11">
      <!-- 0.6 -->
      <g transform="translate(125.07875 377.06325)scale(0.12 -0.12)">
       <use xlink:href="#BitstreamVeraSans-Roman-30"/>
       <use x="63.623046875" xlink:href="#BitstreamVeraSans-Roman-2e"/>
       <use x="95.41015625" xlink:href="#BitstreamVeraSans-Roman-36"/>
      </g>
     </g>
    </g>
    <g id="ytick_5">
     <g id="line2d_23">
      <g>
       <use style="stroke:#000000;stroke-width:0.5;" x="148.1625" xlink:href="#m2f6dcd76e2" y="305.016"/>
      </g>
     </g>
     <g id="line2d_24">
      <g>
       <use style="stroke:#000000;stroke-width:0.5;" x="1066.77" xlink:href="#maf4bffbfae" y="305.016"/>
      </g>
     </g>
     <g id="text_12">
      <!-- 0.8 -->
      <g transform="translate(125.07875 308.32725)scale(0.12 -0.12)">
       <use xlink:href="#BitstreamVeraSans-Roman-30"/>
       <use x="63.623046875" xlink:href="#BitstreamVeraSans-Roman-2e"/>
       <use x="95.41015625" xlink:href="#BitstreamVeraSans-Roman-38"/>
      </g>
     </g>
    </g>
    <g id="ytick_6">
     <g id="line2d_25">
      <g>
       <use style="stroke:#000000;stroke-width:0.5;" x="148.1625" xlink:href="#m2f6dcd76e2" y="236.28"/>
      </g>
     </g>
     <g id="line2d_26">
      <g>
       <use style="stroke:#000000;stroke-width:0.5;" x="1066.77" xlink:href="#maf4bffbfae" y="236.28"/>
      </g>
     </g>
     <g id="text_13">
      <!-- 1.0 -->
      <defs>
       <path d="M 12.40625 8.296875 
L 28.515625 8.296875 
L 28.515625 63.921875 
L 10.984375 60.40625 
L 10.984375 69.390625 
L 28.421875 72.90625 
L 38.28125 72.90625 
L 38.28125 8.296875 
L 54.390625 8.296875 
L 54.390625 0 
L 12.40625 0 
z
" id="BitstreamVeraSans-Roman-31"/>
      </defs>
      <g transform="translate(125.07875 239.59125)scale(0.12 -0.12)">
       <use xlink:href="#BitstreamVeraSans-Roman-31"/>
       <use x="63.623046875" xlink:href="#BitstreamVeraSans-Roman-2e"/>
       <use x="95.41015625" xlink:href="#BitstreamVeraSans-Roman-30"/>
      </g>
     </g>
    </g>
    <g id="ytick_7">
     <g id="line2d_27">
      <g>
       <use style="stroke:#000000;stroke-width:0.5;" x="148.1625" xlink:href="#m2f6dcd76e2" y="167.544"/>
      </g>
     </g>
     <g id="line2d_28">
      <g>
       <use style="stroke:#000000;stroke-width:0.5;" x="1066.77" xlink:href="#maf4bffbfae" y="167.544"/>
      </g>
     </g>
     <g id="text_14">
      <!-- 1.2 -->
      <g transform="translate(125.07875 170.85525)scale(0.12 -0.12)">
       <use xlink:href="#BitstreamVeraSans-Roman-31"/>
       <use x="63.623046875" xlink:href="#BitstreamVeraSans-Roman-2e"/>
       <use x="95.41015625" xlink:href="#BitstreamVeraSans-Roman-32"/>
      </g>
     </g>
    </g>
    <g id="ytick_8">
     <g id="line2d_29">
      <g>
       <use style="stroke:#000000;stroke-width:0.5;" x="148.1625" xlink:href="#m2f6dcd76e2" y="98.808"/>
      </g>
     </g>
     <g id="line2d_30">
      <g>
       <use style="stroke:#000000;stroke-width:0.5;" x="1066.77" xlink:href="#maf4bffbfae" y="98.808"/>
      </g>
     </g>
     <g id="text_15">
      <!-- 1.4 -->
      <g transform="translate(125.07875 102.11925)scale(0.12 -0.12)">
       <use xlink:href="#BitstreamVeraSans-Roman-31"/>
       <use x="63.623046875" xlink:href="#BitstreamVeraSans-Roman-2e"/>
       <use x="95.41015625" xlink:href="#BitstreamVeraSans-Roman-34"/>
      </g>
     </g>
    </g>
    <g id="text_16">
     <!-- Value -->
     <defs>
      <path d="M 8.5 21.578125 
L 8.5 54.6875 
L 17.484375 54.6875 
L 17.484375 21.921875 
Q 17.484375 14.15625 20.5 10.265625 
Q 23.53125 6.390625 29.59375 6.390625 
Q 36.859375 6.390625 41.078125 11.03125 
Q 45.3125 15.671875 45.3125 23.6875 
L 45.3125 54.6875 
L 54.296875 54.6875 
L 54.296875 0 
L 45.3125 0 
L 45.3125 8.40625 
Q 42.046875 3.421875 37.71875 1 
Q 33.40625 -1.421875 27.6875 -1.421875 
Q 18.265625 -1.421875 13.375 4.4375 
Q 8.5 10.296875 8.5 21.578125 
" id="BitstreamVeraSans-Roman-75"/>
      <path d="M 34.28125 27.484375 
Q 23.390625 27.484375 19.1875 25 
Q 14.984375 22.515625 14.984375 16.5 
Q 14.984375 11.71875 18.140625 8.90625 
Q 21.296875 6.109375 26.703125 6.109375 
Q 34.1875 6.109375 38.703125 11.40625 
Q 43.21875 16.703125 43.21875 25.484375 
L 43.21875 27.484375 
z
M 52.203125 31.203125 
L 52.203125 0 
L 43.21875 0 
L 43.21875 8.296875 
Q 40.140625 3.328125 35.546875 0.953125 
Q 30.953125 -1.421875 24.3125 -1.421875 
Q 15.921875 -1.421875 10.953125 3.296875 
Q 6 8.015625 6 15.921875 
Q 6 25.140625 12.171875 29.828125 
Q 18.359375 34.515625 30.609375 34.515625 
L 43.21875 34.515625 
L 43.21875 35.40625 
Q 43.21875 41.609375 39.140625 45 
Q 35.0625 48.390625 27.6875 48.390625 
Q 23 48.390625 18.546875 47.265625 
Q 14.109375 46.140625 10.015625 43.890625 
L 10.015625 52.203125 
Q 14.9375 54.109375 19.578125 55.046875 
Q 24.21875 56 28.609375 56 
Q 40.484375 56 46.34375 49.84375 
Q 52.203125 43.703125 52.203125 31.203125 
" id="BitstreamVeraSans-Roman-61"/>
      <path d="M 9.421875 75.984375 
L 18.40625 75.984375 
L 18.40625 0 
L 9.421875 0 
z
" id="BitstreamVeraSans-Roman-6c"/>
      <path d="M 28.609375 0 
L 0.78125 72.90625 
L 11.078125 72.90625 
L 34.1875 11.53125 
L 57.328125 72.90625 
L 67.578125 72.90625 
L 39.796875 0 
z
" id="BitstreamVeraSans-Roman-56"/>
     </defs>
     <g transform="translate(117.583125 339.1359375)rotate(-90.0)scale(0.12 -0.12)">
      <use xlink:href="#BitstreamVeraSans-Roman-56"/>
      <use x="68.298828125" xlink:href="#BitstreamVeraSans-Roman-61"/>
      <use x="129.578125" xlink:href="#BitstreamVeraSans-Roman-6c"/>
      <use x="157.361328125" xlink:href="#BitstreamVeraSans-Roman-75"/>
      <use x="220.740234375" xlink:href="#BitstreamVeraSans-Roman-65"/>
     </g>
    </g>
   </g>
   <g id="text_17">
    <!-- Acuired data and sampling points -->
    <defs>
     <path d="M 54.890625 33.015625 
L 54.890625 0 
L 45.90625 0 
L 45.90625 32.71875 
Q 45.90625 40.484375 42.875 44.328125 
Q 39.84375 48.1875 33.796875 48.1875 
Q 26.515625 48.1875 22.3125 43.546875 
Q 18.109375 38.921875 18.109375 30.90625 
L 18.109375 0 
L 9.078125 0 
L 9.078125 54.6875 
L 18.109375 54.6875 
L 18.109375 46.1875 
Q 21.34375 51.125 25.703125 53.5625 
Q 30.078125 56 35.796875 56 
Q 45.21875 56 50.046875 50.171875 
Q 54.890625 44.34375 54.890625 33.015625 
" id="BitstreamVeraSans-Roman-6e"/>
     <path d="M 30.609375 48.390625 
Q 23.390625 48.390625 19.1875 42.75 
Q 14.984375 37.109375 14.984375 27.296875 
Q 14.984375 17.484375 19.15625 11.84375 
Q 23.34375 6.203125 30.609375 6.203125 
Q 37.796875 6.203125 41.984375 11.859375 
Q 46.1875 17.53125 46.1875 27.296875 
Q 46.1875 37.015625 41.984375 42.703125 
Q 37.796875 48.390625 30.609375 48.390625 
M 30.609375 56 
Q 42.328125 56 49.015625 48.375 
Q 55.71875 40.765625 55.71875 27.296875 
Q 55.71875 13.875 49.015625 6.21875 
Q 42.328125 -1.421875 30.609375 -1.421875 
Q 18.84375 -1.421875 12.171875 6.21875 
Q 5.515625 13.875 5.515625 27.296875 
Q 5.515625 40.765625 12.171875 48.375 
Q 18.84375 56 30.609375 56 
" id="BitstreamVeraSans-Roman-6f"/>
     <path d="M 34.1875 63.1875 
L 20.796875 26.90625 
L 47.609375 26.90625 
z
M 28.609375 72.90625 
L 39.796875 72.90625 
L 67.578125 0 
L 57.328125 0 
L 50.6875 18.703125 
L 17.828125 18.703125 
L 11.1875 0 
L 0.78125 0 
z
" id="BitstreamVeraSans-Roman-41"/>
     <path d="M 45.40625 46.390625 
L 45.40625 75.984375 
L 54.390625 75.984375 
L 54.390625 0 
L 45.40625 0 
L 45.40625 8.203125 
Q 42.578125 3.328125 38.25 0.953125 
Q 33.9375 -1.421875 27.875 -1.421875 
Q 17.96875 -1.421875 11.734375 6.484375 
Q 5.515625 14.40625 5.515625 27.296875 
Q 5.515625 40.1875 11.734375 48.09375 
Q 17.96875 56 27.875 56 
Q 33.9375 56 38.25 53.625 
Q 42.578125 51.265625 45.40625 46.390625 
M 14.796875 27.296875 
Q 14.796875 17.390625 18.875 11.75 
Q 22.953125 6.109375 30.078125 6.109375 
Q 37.203125 6.109375 41.296875 11.75 
Q 45.40625 17.390625 45.40625 27.296875 
Q 45.40625 37.203125 41.296875 42.84375 
Q 37.203125 48.484375 30.078125 48.484375 
Q 22.953125 48.484375 18.875 42.84375 
Q 14.796875 37.203125 14.796875 27.296875 
" id="BitstreamVeraSans-Roman-64"/>
     <path d="M 18.3125 70.21875 
L 18.3125 54.6875 
L 36.8125 54.6875 
L 36.8125 47.703125 
L 18.3125 47.703125 
L 18.3125 18.015625 
Q 18.3125 11.328125 20.140625 9.421875 
Q 21.96875 7.515625 27.59375 7.515625 
L 36.8125 7.515625 
L 36.8125 0 
L 27.59375 0 
Q 17.1875 0 13.234375 3.875 
Q 9.28125 7.765625 9.28125 18.015625 
L 9.28125 47.703125 
L 2.6875 47.703125 
L 2.6875 54.6875 
L 9.28125 54.6875 
L 9.28125 70.21875 
z
" id="BitstreamVeraSans-Roman-74"/>
     <path d="M 41.109375 46.296875 
Q 39.59375 47.171875 37.8125 47.578125 
Q 36.03125 48 33.890625 48 
Q 26.265625 48 22.1875 43.046875 
Q 18.109375 38.09375 18.109375 28.8125 
L 18.109375 0 
L 9.078125 0 
L 9.078125 54.6875 
L 18.109375 54.6875 
L 18.109375 46.1875 
Q 20.953125 51.171875 25.484375 53.578125 
Q 30.03125 56 36.53125 56 
Q 37.453125 56 38.578125 55.875 
Q 39.703125 55.765625 41.0625 55.515625 
z
" id="BitstreamVeraSans-Roman-72"/>
     <path d="M 45.40625 27.984375 
Q 45.40625 37.75 41.375 43.109375 
Q 37.359375 48.484375 30.078125 48.484375 
Q 22.859375 48.484375 18.828125 43.109375 
Q 14.796875 37.75 14.796875 27.984375 
Q 14.796875 18.265625 18.828125 12.890625 
Q 22.859375 7.515625 30.078125 7.515625 
Q 37.359375 7.515625 41.375 12.890625 
Q 45.40625 18.265625 45.40625 27.984375 
M 54.390625 6.78125 
Q 54.390625 -7.171875 48.1875 -13.984375 
Q 42 -20.796875 29.203125 -20.796875 
Q 24.46875 -20.796875 20.265625 -20.09375 
Q 16.0625 -19.390625 12.109375 -17.921875 
L 12.109375 -9.1875 
Q 16.0625 -11.328125 19.921875 -12.34375 
Q 23.78125 -13.375 27.78125 -13.375 
Q 36.625 -13.375 41.015625 -8.765625 
Q 45.40625 -4.15625 45.40625 5.171875 
L 45.40625 9.625 
Q 42.625 4.78125 38.28125 2.390625 
Q 33.9375 0 27.875 0 
Q 17.828125 0 11.671875 7.65625 
Q 5.515625 15.328125 5.515625 27.984375 
Q 5.515625 40.671875 11.671875 48.328125 
Q 17.828125 56 27.875 56 
Q 33.9375 56 38.28125 53.609375 
Q 42.625 51.21875 45.40625 46.390625 
L 45.40625 54.6875 
L 54.390625 54.6875 
z
" id="BitstreamVeraSans-Roman-67"/>
     <path d="M 18.109375 8.203125 
L 18.109375 -20.796875 
L 9.078125 -20.796875 
L 9.078125 54.6875 
L 18.109375 54.6875 
L 18.109375 46.390625 
Q 20.953125 51.265625 25.265625 53.625 
Q 29.59375 56 35.59375 56 
Q 45.5625 56 51.78125 48.09375 
Q 58.015625 40.1875 58.015625 27.296875 
Q 58.015625 14.40625 51.78125 6.484375 
Q 45.5625 -1.421875 35.59375 -1.421875 
Q 29.59375 -1.421875 25.265625 0.953125 
Q 20.953125 3.328125 18.109375 8.203125 
M 48.6875 27.296875 
Q 48.6875 37.203125 44.609375 42.84375 
Q 40.53125 48.484375 33.40625 48.484375 
Q 26.265625 48.484375 22.1875 42.84375 
Q 18.109375 37.203125 18.109375 27.296875 
Q 18.109375 17.390625 22.1875 11.75 
Q 26.265625 6.109375 33.40625 6.109375 
Q 40.53125 6.109375 44.609375 11.75 
Q 48.6875 17.390625 48.6875 27.296875 
" id="BitstreamVeraSans-Roman-70"/>
    </defs>
    <g transform="translate(486.149625 59.44)scale(0.144 -0.144)">
     <use xlink:href="#BitstreamVeraSans-Roman-41"/>
     <use x="68.392578125" xlink:href="#BitstreamVeraSans-Roman-63"/>
     <use x="123.373046875" xlink:href="#BitstreamVeraSans-Roman-75"/>
     <use x="186.751953125" xlink:href="#BitstreamVeraSans-Roman-69"/>
     <use x="214.53515625" xlink:href="#BitstreamVeraSans-Roman-72"/>
     <use x="255.6171875" xlink:href="#BitstreamVeraSans-Roman-65"/>
     <use x="317.140625" xlink:href="#BitstreamVeraSans-Roman-64"/>
     <use x="380.6171875" xlink:href="#BitstreamVeraSans-Roman-20"/>
     <use x="412.404296875" xlink:href="#BitstreamVeraSans-Roman-64"/>
     <use x="475.880859375" xlink:href="#BitstreamVeraSans-Roman-61"/>
     <use x="537.16015625" xlink:href="#BitstreamVeraSans-Roman-74"/>
     <use x="576.369140625" xlink:href="#BitstreamVeraSans-Roman-61"/>
     <use x="637.6484375" xlink:href="#BitstreamVeraSans-Roman-20"/>
     <use x="669.435546875" xlink:href="#BitstreamVeraSans-Roman-61"/>
     <use x="730.71484375" xlink:href="#BitstreamVeraSans-Roman-6e"/>
     <use x="794.09375" xlink:href="#BitstreamVeraSans-Roman-64"/>
     <use x="857.5703125" xlink:href="#BitstreamVeraSans-Roman-20"/>
     <use x="889.357421875" xlink:href="#BitstreamVeraSans-Roman-73"/>
     <use x="941.45703125" xlink:href="#BitstreamVeraSans-Roman-61"/>
     <use x="1002.73632812" xlink:href="#BitstreamVeraSans-Roman-6d"/>
     <use x="1100.1484375" xlink:href="#BitstreamVeraSans-Roman-70"/>
     <use x="1163.625" xlink:href="#BitstreamVeraSans-Roman-6c"/>
     <use x="1191.40820312" xlink:href="#BitstreamVeraSans-Roman-69"/>
     <use x="1219.19140625" xlink:href="#BitstreamVeraSans-Roman-6e"/>
     <use x="1282.5703125" xlink:href="#BitstreamVeraSans-Roman-67"/>
     <use x="1346.046875" xlink:href="#BitstreamVeraSans-Roman-20"/>
     <use x="1377.83398438" xlink:href="#BitstreamVeraSans-Roman-70"/>
     <use x="1441.31054688" xlink:href="#BitstreamVeraSans-Roman-6f"/>
     <use x="1502.4921875" xlink:href="#BitstreamVeraSans-Roman-69"/>
     <use x="1530.27539062" xlink:href="#BitstreamVeraSans-Roman-6e"/>
     <use x="1593.65429688" xlink:href="#BitstreamVeraSans-Roman-74"/>
     <use x="1632.86328125" xlink:href="#BitstreamVeraSans-Roman-73"/>
    </g>
   </g>
   <g id="legend_1">
    <g id="patch_7">
     <path d="M 904.932 118.233 
L 1059.57 118.233 
L 1059.57 71.64 
L 904.932 71.64 
z
" style="fill:#ffffff;stroke:#000000;stroke-linejoin:miter;"/>
    </g>
    <g id="line2d_31">
     <path d="M 915.012 83.30175 
L 935.172 83.30175 
" style="fill:none;stroke:#0000ff;stroke-linecap:square;"/>
    </g>
    <g id="line2d_32"/>
    <g id="text_18">
     <!-- Acquired data -->
     <defs>
      <path d="M 14.796875 27.296875 
Q 14.796875 17.390625 18.875 11.75 
Q 22.953125 6.109375 30.078125 6.109375 
Q 37.203125 6.109375 41.296875 11.75 
Q 45.40625 17.390625 45.40625 27.296875 
Q 45.40625 37.203125 41.296875 42.84375 
Q 37.203125 48.484375 30.078125 48.484375 
Q 22.953125 48.484375 18.875 42.84375 
Q 14.796875 37.203125 14.796875 27.296875 
M 45.40625 8.203125 
Q 42.578125 3.328125 38.25 0.953125 
Q 33.9375 -1.421875 27.875 -1.421875 
Q 17.96875 -1.421875 11.734375 6.484375 
Q 5.515625 14.40625 5.515625 27.296875 
Q 5.515625 40.1875 11.734375 48.09375 
Q 17.96875 56 27.875 56 
Q 33.9375 56 38.25 53.625 
Q 42.578125 51.265625 45.40625 46.390625 
L 45.40625 54.6875 
L 54.390625 54.6875 
L 54.390625 -20.796875 
L 45.40625 -20.796875 
z
" id="BitstreamVeraSans-Roman-71"/>
     </defs>
     <g transform="translate(951.012 88.34175)scale(0.144 -0.144)">
      <use xlink:href="#BitstreamVeraSans-Roman-41"/>
      <use x="68.392578125" xlink:href="#BitstreamVeraSans-Roman-63"/>
      <use x="123.373046875" xlink:href="#BitstreamVeraSans-Roman-71"/>
      <use x="186.849609375" xlink:href="#BitstreamVeraSans-Roman-75"/>
      <use x="250.228515625" xlink:href="#BitstreamVeraSans-Roman-69"/>
      <use x="278.01171875" xlink:href="#BitstreamVeraSans-Roman-72"/>
      <use x="319.09375" xlink:href="#BitstreamVeraSans-Roman-65"/>
      <use x="380.6171875" xlink:href="#BitstreamVeraSans-Roman-64"/>
      <use x="444.09375" xlink:href="#BitstreamVeraSans-Roman-20"/>
      <use x="475.880859375" xlink:href="#BitstreamVeraSans-Roman-64"/>
      <use x="539.357421875" xlink:href="#BitstreamVeraSans-Roman-61"/>
      <use x="600.63671875" xlink:href="#BitstreamVeraSans-Roman-74"/>
      <use x="639.845703125" xlink:href="#BitstreamVeraSans-Roman-61"/>
     </g>
    </g>
    <g id="line2d_33"/>
    <g id="line2d_34">
     <g>
      <use style="fill:#ff0000;stroke:#ff0000;stroke-width:0.5;" x="915.012" xlink:href="#m8436073b42" y="104.43825"/>
      <use style="fill:#ff0000;stroke:#ff0000;stroke-width:0.5;" x="935.172" xlink:href="#m8436073b42" y="104.43825"/>
     </g>
    </g>
    <g id="text_19">
     <!-- Sample points -->
     <defs>
      <path d="M 53.515625 70.515625 
L 53.515625 60.890625 
Q 47.90625 63.578125 42.921875 64.890625 
Q 37.9375 66.21875 33.296875 66.21875 
Q 25.25 66.21875 20.875 63.09375 
Q 16.5 59.96875 16.5 54.203125 
Q 16.5 49.359375 19.40625 46.890625 
Q 22.3125 44.4375 30.421875 42.921875 
L 36.375 41.703125 
Q 47.40625 39.59375 52.65625 34.296875 
Q 57.90625 29 57.90625 20.125 
Q 57.90625 9.515625 50.796875 4.046875 
Q 43.703125 -1.421875 29.984375 -1.421875 
Q 24.8125 -1.421875 18.96875 -0.25 
Q 13.140625 0.921875 6.890625 3.21875 
L 6.890625 13.375 
Q 12.890625 10.015625 18.65625 8.296875 
Q 24.421875 6.59375 29.984375 6.59375 
Q 38.421875 6.59375 43.015625 9.90625 
Q 47.609375 13.234375 47.609375 19.390625 
Q 47.609375 24.75 44.3125 27.78125 
Q 41.015625 30.8125 33.5 32.328125 
L 27.484375 33.5 
Q 16.453125 35.6875 11.515625 40.375 
Q 6.59375 45.0625 6.59375 53.421875 
Q 6.59375 63.09375 13.40625 68.65625 
Q 20.21875 74.21875 32.171875 74.21875 
Q 37.3125 74.21875 42.625 73.28125 
Q 47.953125 72.359375 53.515625 70.515625 
" id="BitstreamVeraSans-Roman-53"/>
     </defs>
     <g transform="translate(951.012 109.47825)scale(0.144 -0.144)">
      <use xlink:href="#BitstreamVeraSans-Roman-53"/>
      <use x="63.4765625" xlink:href="#BitstreamVeraSans-Roman-61"/>
      <use x="124.755859375" xlink:href="#BitstreamVeraSans-Roman-6d"/>
      <use x="222.16796875" xlink:href="#BitstreamVeraSans-Roman-70"/>
      <use x="285.64453125" xlink:href="#BitstreamVeraSans-Roman-6c"/>
      <use x="313.427734375" xlink:href="#BitstreamVeraSans-Roman-65"/>
      <use x="374.951171875" xlink:href="#BitstreamVeraSans-Roman-20"/>
      <use x="406.73828125" xlink:href="#BitstreamVeraSans-Roman-70"/>
      <use x="470.21484375" xlink:href="#BitstreamVeraSans-Roman-6f"/>
      <use x="531.396484375" xlink:href="#BitstreamVeraSans-Roman-69"/>
      <use x="559.1796875" xlink:href="#BitstreamVeraSans-Roman-6e"/>
      <use x="622.55859375" xlink:href="#BitstreamVeraSans-Roman-74"/>
      <use x="661.767578125" xlink:href="#BitstreamVeraSans-Roman-73"/>
     </g>
    </g>
   </g>
  </g>
 </g>
 <defs>
  <clipPath id="p0aae962aee">
   <rect height="515.52" width="918.6075" x="148.1625" y="64.44"/>
  </clipPath>
 </defs>
</svg>
